G04 #@! TF.GenerationSoftware,KiCad,Pcbnew,(5.1.0)-1*
G04 #@! TF.CreationDate,2020-01-06T22:37:38-04:00*
G04 #@! TF.ProjectId,main,6d61696e-2e6b-4696-9361-645f70636258,rev?*
G04 #@! TF.SameCoordinates,Original*
G04 #@! TF.FileFunction,Soldermask,Top*
G04 #@! TF.FilePolarity,Negative*
%FSLAX46Y46*%
G04 Gerber Fmt 4.6, Leading zero omitted, Abs format (unit mm)*
G04 Created by KiCad (PCBNEW (5.1.0)-1) date 2020-01-06 22:37:38*
%MOMM*%
%LPD*%
G04 APERTURE LIST*
%ADD10C,0.100000*%
G04 APERTURE END LIST*
D10*
G36*
X141820200Y-87362600D02*
G01*
X140018200Y-87362600D01*
X140018200Y-85560600D01*
X141820200Y-85560600D01*
X141820200Y-87362600D01*
X141820200Y-87362600D01*
G37*
G36*
X141682062Y-82616181D02*
G01*
X141716981Y-82626774D01*
X141749163Y-82643976D01*
X141777373Y-82667127D01*
X141800524Y-82695337D01*
X141817726Y-82727519D01*
X141828319Y-82762438D01*
X141832500Y-82804895D01*
X141832500Y-83946105D01*
X141828319Y-83988562D01*
X141817726Y-84023481D01*
X141800524Y-84055663D01*
X141777373Y-84083873D01*
X141749163Y-84107024D01*
X141716981Y-84124226D01*
X141682062Y-84134819D01*
X141639605Y-84139000D01*
X140173395Y-84139000D01*
X140130938Y-84134819D01*
X140096019Y-84124226D01*
X140063837Y-84107024D01*
X140035627Y-84083873D01*
X140012476Y-84055663D01*
X139995274Y-84023481D01*
X139984681Y-83988562D01*
X139980500Y-83946105D01*
X139980500Y-82804895D01*
X139984681Y-82762438D01*
X139995274Y-82727519D01*
X140012476Y-82695337D01*
X140035627Y-82667127D01*
X140063837Y-82643976D01*
X140096019Y-82626774D01*
X140130938Y-82616181D01*
X140173395Y-82612000D01*
X141639605Y-82612000D01*
X141682062Y-82616181D01*
X141682062Y-82616181D01*
G37*
G36*
X146189000Y-84111400D02*
G01*
X144387000Y-84111400D01*
X144387000Y-82309400D01*
X146189000Y-82309400D01*
X146189000Y-84111400D01*
X146189000Y-84111400D01*
G37*
G36*
X136029000Y-83095400D02*
G01*
X134227000Y-83095400D01*
X134227000Y-81293400D01*
X136029000Y-81293400D01*
X136029000Y-83095400D01*
X136029000Y-83095400D01*
G37*
G36*
X156223562Y-80674681D02*
G01*
X156258481Y-80685274D01*
X156290663Y-80702476D01*
X156318873Y-80725627D01*
X156342024Y-80753837D01*
X156359226Y-80786019D01*
X156369819Y-80820938D01*
X156374000Y-80863395D01*
X156374000Y-82004605D01*
X156369819Y-82047062D01*
X156359226Y-82081981D01*
X156342024Y-82114163D01*
X156318873Y-82142373D01*
X156290663Y-82165524D01*
X156258481Y-82182726D01*
X156223562Y-82193319D01*
X156181105Y-82197500D01*
X154714895Y-82197500D01*
X154672438Y-82193319D01*
X154637519Y-82182726D01*
X154605337Y-82165524D01*
X154577127Y-82142373D01*
X154553976Y-82114163D01*
X154536774Y-82081981D01*
X154526181Y-82047062D01*
X154522000Y-82004605D01*
X154522000Y-80863395D01*
X154526181Y-80820938D01*
X154536774Y-80786019D01*
X154553976Y-80753837D01*
X154577127Y-80725627D01*
X154605337Y-80702476D01*
X154637519Y-80685274D01*
X154672438Y-80674681D01*
X154714895Y-80670500D01*
X156181105Y-80670500D01*
X156223562Y-80674681D01*
X156223562Y-80674681D01*
G37*
G36*
X152477062Y-80647681D02*
G01*
X152511981Y-80658274D01*
X152544163Y-80675476D01*
X152572373Y-80698627D01*
X152595524Y-80726837D01*
X152612726Y-80759019D01*
X152623319Y-80793938D01*
X152627500Y-80836395D01*
X152627500Y-81977605D01*
X152623319Y-82020062D01*
X152612726Y-82054981D01*
X152595524Y-82087163D01*
X152572373Y-82115373D01*
X152544163Y-82138524D01*
X152511981Y-82155726D01*
X152477062Y-82166319D01*
X152434605Y-82170500D01*
X150968395Y-82170500D01*
X150925938Y-82166319D01*
X150891019Y-82155726D01*
X150858837Y-82138524D01*
X150830627Y-82115373D01*
X150807476Y-82087163D01*
X150790274Y-82054981D01*
X150779681Y-82020062D01*
X150775500Y-81977605D01*
X150775500Y-80836395D01*
X150779681Y-80793938D01*
X150790274Y-80759019D01*
X150807476Y-80726837D01*
X150830627Y-80698627D01*
X150858837Y-80675476D01*
X150891019Y-80658274D01*
X150925938Y-80647681D01*
X150968395Y-80643500D01*
X152434605Y-80643500D01*
X152477062Y-80647681D01*
X152477062Y-80647681D01*
G37*
G36*
X160097062Y-80638181D02*
G01*
X160131981Y-80648774D01*
X160164163Y-80665976D01*
X160192373Y-80689127D01*
X160215524Y-80717337D01*
X160232726Y-80749519D01*
X160243319Y-80784438D01*
X160247500Y-80826895D01*
X160247500Y-81968105D01*
X160243319Y-82010562D01*
X160232726Y-82045481D01*
X160215524Y-82077663D01*
X160192373Y-82105873D01*
X160164163Y-82129024D01*
X160131981Y-82146226D01*
X160097062Y-82156819D01*
X160054605Y-82161000D01*
X158588395Y-82161000D01*
X158545938Y-82156819D01*
X158511019Y-82146226D01*
X158478837Y-82129024D01*
X158450627Y-82105873D01*
X158427476Y-82077663D01*
X158410274Y-82045481D01*
X158399681Y-82010562D01*
X158395500Y-81968105D01*
X158395500Y-80826895D01*
X158399681Y-80784438D01*
X158410274Y-80749519D01*
X158427476Y-80717337D01*
X158450627Y-80689127D01*
X158478837Y-80665976D01*
X158511019Y-80648774D01*
X158545938Y-80638181D01*
X158588395Y-80634000D01*
X160054605Y-80634000D01*
X160097062Y-80638181D01*
X160097062Y-80638181D01*
G37*
G36*
X141682062Y-79641181D02*
G01*
X141716981Y-79651774D01*
X141749163Y-79668976D01*
X141777373Y-79692127D01*
X141800524Y-79720337D01*
X141817726Y-79752519D01*
X141828319Y-79787438D01*
X141832500Y-79829895D01*
X141832500Y-80971105D01*
X141828319Y-81013562D01*
X141817726Y-81048481D01*
X141800524Y-81080663D01*
X141777373Y-81108873D01*
X141749163Y-81132024D01*
X141716981Y-81149226D01*
X141682062Y-81159819D01*
X141639605Y-81164000D01*
X140173395Y-81164000D01*
X140130938Y-81159819D01*
X140096019Y-81149226D01*
X140063837Y-81132024D01*
X140035627Y-81108873D01*
X140012476Y-81080663D01*
X139995274Y-81048481D01*
X139984681Y-81013562D01*
X139980500Y-80971105D01*
X139980500Y-79829895D01*
X139984681Y-79787438D01*
X139995274Y-79752519D01*
X140012476Y-79720337D01*
X140035627Y-79692127D01*
X140063837Y-79668976D01*
X140096019Y-79651774D01*
X140130938Y-79641181D01*
X140173395Y-79637000D01*
X141639605Y-79637000D01*
X141682062Y-79641181D01*
X141682062Y-79641181D01*
G37*
G36*
X156223562Y-77699681D02*
G01*
X156258481Y-77710274D01*
X156290663Y-77727476D01*
X156318873Y-77750627D01*
X156342024Y-77778837D01*
X156359226Y-77811019D01*
X156369819Y-77845938D01*
X156374000Y-77888395D01*
X156374000Y-79029605D01*
X156369819Y-79072062D01*
X156359226Y-79106981D01*
X156342024Y-79139163D01*
X156318873Y-79167373D01*
X156290663Y-79190524D01*
X156258481Y-79207726D01*
X156223562Y-79218319D01*
X156181105Y-79222500D01*
X154714895Y-79222500D01*
X154672438Y-79218319D01*
X154637519Y-79207726D01*
X154605337Y-79190524D01*
X154577127Y-79167373D01*
X154553976Y-79139163D01*
X154536774Y-79106981D01*
X154526181Y-79072062D01*
X154522000Y-79029605D01*
X154522000Y-77888395D01*
X154526181Y-77845938D01*
X154536774Y-77811019D01*
X154553976Y-77778837D01*
X154577127Y-77750627D01*
X154605337Y-77727476D01*
X154637519Y-77710274D01*
X154672438Y-77699681D01*
X154714895Y-77695500D01*
X156181105Y-77695500D01*
X156223562Y-77699681D01*
X156223562Y-77699681D01*
G37*
G36*
X152477062Y-77672681D02*
G01*
X152511981Y-77683274D01*
X152544163Y-77700476D01*
X152572373Y-77723627D01*
X152595524Y-77751837D01*
X152612726Y-77784019D01*
X152623319Y-77818938D01*
X152627500Y-77861395D01*
X152627500Y-79002605D01*
X152623319Y-79045062D01*
X152612726Y-79079981D01*
X152595524Y-79112163D01*
X152572373Y-79140373D01*
X152544163Y-79163524D01*
X152511981Y-79180726D01*
X152477062Y-79191319D01*
X152434605Y-79195500D01*
X150968395Y-79195500D01*
X150925938Y-79191319D01*
X150891019Y-79180726D01*
X150858837Y-79163524D01*
X150830627Y-79140373D01*
X150807476Y-79112163D01*
X150790274Y-79079981D01*
X150779681Y-79045062D01*
X150775500Y-79002605D01*
X150775500Y-77861395D01*
X150779681Y-77818938D01*
X150790274Y-77784019D01*
X150807476Y-77751837D01*
X150830627Y-77723627D01*
X150858837Y-77700476D01*
X150891019Y-77683274D01*
X150925938Y-77672681D01*
X150968395Y-77668500D01*
X152434605Y-77668500D01*
X152477062Y-77672681D01*
X152477062Y-77672681D01*
G37*
G36*
X160097062Y-77663181D02*
G01*
X160131981Y-77673774D01*
X160164163Y-77690976D01*
X160192373Y-77714127D01*
X160215524Y-77742337D01*
X160232726Y-77774519D01*
X160243319Y-77809438D01*
X160247500Y-77851895D01*
X160247500Y-78993105D01*
X160243319Y-79035562D01*
X160232726Y-79070481D01*
X160215524Y-79102663D01*
X160192373Y-79130873D01*
X160164163Y-79154024D01*
X160131981Y-79171226D01*
X160097062Y-79181819D01*
X160054605Y-79186000D01*
X158588395Y-79186000D01*
X158545938Y-79181819D01*
X158511019Y-79171226D01*
X158478837Y-79154024D01*
X158450627Y-79130873D01*
X158427476Y-79102663D01*
X158410274Y-79070481D01*
X158399681Y-79035562D01*
X158395500Y-78993105D01*
X158395500Y-77851895D01*
X158399681Y-77809438D01*
X158410274Y-77774519D01*
X158427476Y-77742337D01*
X158450627Y-77714127D01*
X158478837Y-77690976D01*
X158511019Y-77673774D01*
X158545938Y-77663181D01*
X158588395Y-77659000D01*
X160054605Y-77659000D01*
X160097062Y-77663181D01*
X160097062Y-77663181D01*
G37*
G36*
X140323162Y-77320281D02*
G01*
X140358081Y-77330874D01*
X140390263Y-77348076D01*
X140418473Y-77371227D01*
X140441624Y-77399437D01*
X140458826Y-77431619D01*
X140469419Y-77466538D01*
X140473600Y-77508995D01*
X140473600Y-78650205D01*
X140469419Y-78692662D01*
X140458826Y-78727581D01*
X140441624Y-78759763D01*
X140418473Y-78787973D01*
X140390263Y-78811124D01*
X140358081Y-78828326D01*
X140323162Y-78838919D01*
X140280705Y-78843100D01*
X138814495Y-78843100D01*
X138772038Y-78838919D01*
X138737119Y-78828326D01*
X138704937Y-78811124D01*
X138676727Y-78787973D01*
X138653576Y-78759763D01*
X138636374Y-78727581D01*
X138625781Y-78692662D01*
X138621600Y-78650205D01*
X138621600Y-77508995D01*
X138625781Y-77466538D01*
X138636374Y-77431619D01*
X138653576Y-77399437D01*
X138676727Y-77371227D01*
X138704937Y-77348076D01*
X138737119Y-77330874D01*
X138772038Y-77320281D01*
X138814495Y-77316100D01*
X140280705Y-77316100D01*
X140323162Y-77320281D01*
X140323162Y-77320281D01*
G37*
G36*
X136768600Y-78533000D02*
G01*
X132166600Y-78533000D01*
X132166600Y-76431000D01*
X136768600Y-76431000D01*
X136768600Y-78533000D01*
X136768600Y-78533000D01*
G37*
G36*
X130390200Y-78371000D02*
G01*
X128588200Y-78371000D01*
X128588200Y-76569000D01*
X130390200Y-76569000D01*
X130390200Y-78371000D01*
X130390200Y-78371000D01*
G37*
G36*
X144028400Y-78238400D02*
G01*
X142476400Y-78238400D01*
X142476400Y-75736400D01*
X144028400Y-75736400D01*
X144028400Y-78238400D01*
X144028400Y-78238400D01*
G37*
G36*
X149928400Y-78238400D02*
G01*
X148376400Y-78238400D01*
X148376400Y-75736400D01*
X149928400Y-75736400D01*
X149928400Y-78238400D01*
X149928400Y-78238400D01*
G37*
G36*
X140323162Y-74345281D02*
G01*
X140358081Y-74355874D01*
X140390263Y-74373076D01*
X140418473Y-74396227D01*
X140441624Y-74424437D01*
X140458826Y-74456619D01*
X140469419Y-74491538D01*
X140473600Y-74533995D01*
X140473600Y-75675205D01*
X140469419Y-75717662D01*
X140458826Y-75752581D01*
X140441624Y-75784763D01*
X140418473Y-75812973D01*
X140390263Y-75836124D01*
X140358081Y-75853326D01*
X140323162Y-75863919D01*
X140280705Y-75868100D01*
X138814495Y-75868100D01*
X138772038Y-75863919D01*
X138737119Y-75853326D01*
X138704937Y-75836124D01*
X138676727Y-75812973D01*
X138653576Y-75784763D01*
X138636374Y-75752581D01*
X138625781Y-75717662D01*
X138621600Y-75675205D01*
X138621600Y-74533995D01*
X138625781Y-74491538D01*
X138636374Y-74456619D01*
X138653576Y-74424437D01*
X138676727Y-74396227D01*
X138704937Y-74373076D01*
X138737119Y-74355874D01*
X138772038Y-74345281D01*
X138814495Y-74341100D01*
X140280705Y-74341100D01*
X140323162Y-74345281D01*
X140323162Y-74345281D01*
G37*
G36*
X158736600Y-75526200D02*
G01*
X156934600Y-75526200D01*
X156934600Y-73724200D01*
X158736600Y-73724200D01*
X158736600Y-75526200D01*
X158736600Y-75526200D01*
G37*
G36*
X153453400Y-75475400D02*
G01*
X151651400Y-75475400D01*
X151651400Y-73673400D01*
X153453400Y-73673400D01*
X153453400Y-75475400D01*
X153453400Y-75475400D01*
G37*
G36*
X142812362Y-72000581D02*
G01*
X142847281Y-72011174D01*
X142879463Y-72028376D01*
X142907673Y-72051527D01*
X142930824Y-72079737D01*
X142948026Y-72111919D01*
X142958619Y-72146838D01*
X142962800Y-72189295D01*
X142962800Y-73330505D01*
X142958619Y-73372962D01*
X142948026Y-73407881D01*
X142930824Y-73440063D01*
X142907673Y-73468273D01*
X142879463Y-73491424D01*
X142847281Y-73508626D01*
X142812362Y-73519219D01*
X142769905Y-73523400D01*
X141303695Y-73523400D01*
X141261238Y-73519219D01*
X141226319Y-73508626D01*
X141194137Y-73491424D01*
X141165927Y-73468273D01*
X141142776Y-73440063D01*
X141125574Y-73407881D01*
X141114981Y-73372962D01*
X141110800Y-73330505D01*
X141110800Y-72189295D01*
X141114981Y-72146838D01*
X141125574Y-72111919D01*
X141142776Y-72079737D01*
X141165927Y-72051527D01*
X141194137Y-72028376D01*
X141226319Y-72011174D01*
X141261238Y-72000581D01*
X141303695Y-71996400D01*
X142769905Y-71996400D01*
X142812362Y-72000581D01*
X142812362Y-72000581D01*
G37*
G36*
X136768600Y-72933000D02*
G01*
X132166600Y-72933000D01*
X132166600Y-70831000D01*
X136768600Y-70831000D01*
X136768600Y-72933000D01*
X136768600Y-72933000D01*
G37*
G36*
X130491800Y-72783000D02*
G01*
X128689800Y-72783000D01*
X128689800Y-70981000D01*
X130491800Y-70981000D01*
X130491800Y-72783000D01*
X130491800Y-72783000D01*
G37*
G36*
X142812362Y-69025581D02*
G01*
X142847281Y-69036174D01*
X142879463Y-69053376D01*
X142907673Y-69076527D01*
X142930824Y-69104737D01*
X142948026Y-69136919D01*
X142958619Y-69171838D01*
X142962800Y-69214295D01*
X142962800Y-70355505D01*
X142958619Y-70397962D01*
X142948026Y-70432881D01*
X142930824Y-70465063D01*
X142907673Y-70493273D01*
X142879463Y-70516424D01*
X142847281Y-70533626D01*
X142812362Y-70544219D01*
X142769905Y-70548400D01*
X141303695Y-70548400D01*
X141261238Y-70544219D01*
X141226319Y-70533626D01*
X141194137Y-70516424D01*
X141165927Y-70493273D01*
X141142776Y-70465063D01*
X141125574Y-70432881D01*
X141114981Y-70397962D01*
X141110800Y-70355505D01*
X141110800Y-69214295D01*
X141114981Y-69171838D01*
X141125574Y-69136919D01*
X141142776Y-69104737D01*
X141165927Y-69076527D01*
X141194137Y-69053376D01*
X141226319Y-69036174D01*
X141261238Y-69025581D01*
X141303695Y-69021400D01*
X142769905Y-69021400D01*
X142812362Y-69025581D01*
X142812362Y-69025581D01*
G37*
G36*
X138041362Y-67454981D02*
G01*
X138076281Y-67465574D01*
X138108463Y-67482776D01*
X138136673Y-67505927D01*
X138159824Y-67534137D01*
X138177026Y-67566319D01*
X138187619Y-67601238D01*
X138191800Y-67643695D01*
X138191800Y-69109905D01*
X138187619Y-69152362D01*
X138177026Y-69187281D01*
X138159824Y-69219463D01*
X138136673Y-69247673D01*
X138108463Y-69270824D01*
X138076281Y-69288026D01*
X138041362Y-69298619D01*
X137998905Y-69302800D01*
X136857695Y-69302800D01*
X136815238Y-69298619D01*
X136780319Y-69288026D01*
X136748137Y-69270824D01*
X136719927Y-69247673D01*
X136696776Y-69219463D01*
X136679574Y-69187281D01*
X136668981Y-69152362D01*
X136664800Y-69109905D01*
X136664800Y-67643695D01*
X136668981Y-67601238D01*
X136679574Y-67566319D01*
X136696776Y-67534137D01*
X136719927Y-67505927D01*
X136748137Y-67482776D01*
X136780319Y-67465574D01*
X136815238Y-67454981D01*
X136857695Y-67450800D01*
X137998905Y-67450800D01*
X138041362Y-67454981D01*
X138041362Y-67454981D01*
G37*
G36*
X135066362Y-67454981D02*
G01*
X135101281Y-67465574D01*
X135133463Y-67482776D01*
X135161673Y-67505927D01*
X135184824Y-67534137D01*
X135202026Y-67566319D01*
X135212619Y-67601238D01*
X135216800Y-67643695D01*
X135216800Y-69109905D01*
X135212619Y-69152362D01*
X135202026Y-69187281D01*
X135184824Y-69219463D01*
X135161673Y-69247673D01*
X135133463Y-69270824D01*
X135101281Y-69288026D01*
X135066362Y-69298619D01*
X135023905Y-69302800D01*
X133882695Y-69302800D01*
X133840238Y-69298619D01*
X133805319Y-69288026D01*
X133773137Y-69270824D01*
X133744927Y-69247673D01*
X133721776Y-69219463D01*
X133704574Y-69187281D01*
X133693981Y-69152362D01*
X133689800Y-69109905D01*
X133689800Y-67643695D01*
X133693981Y-67601238D01*
X133704574Y-67566319D01*
X133721776Y-67534137D01*
X133744927Y-67505927D01*
X133773137Y-67482776D01*
X133805319Y-67465574D01*
X133840238Y-67454981D01*
X133882695Y-67450800D01*
X135023905Y-67450800D01*
X135066362Y-67454981D01*
X135066362Y-67454981D01*
G37*
M02*
