M48
; DRILL file {KiCad (5.1.0)-1} date 1/6/2020 10:37:41 PM
; FORMAT={-:-/ absolute / inch / decimal}
; #@! TF.CreationDate,2020-01-06T22:37:41-04:00
; #@! TF.GenerationSoftware,Kicad,Pcbnew,(5.1.0)-1
; #@! TF.FileFunction,Plated,1,2,PTH
FMAT,2
INCH
T1C0.0157
T2C0.0394
%
G90
G05
T1
X5.5978Y-2.9702
X5.624Y-3.104
X5.67Y-2.91
X5.68Y-3.1545
X5.718Y-2.91
X5.72Y-2.97
X5.724Y-3.134
X5.77Y-2.91
X5.77Y-2.97
X5.774Y-3.134
X5.82Y-2.91
X5.82Y-3.16
X5.8721Y-3.0319
T2
X5.102Y-2.83
X5.32Y-3.236
X5.098Y-3.05
X6.006Y-2.936
X5.72Y-3.276
X5.548Y-3.404
X6.214Y-2.938
T0
M30
